<svg id="Layer_1" data-name="Layer 1" xmlns="http://www.w3.org/2000/svg" viewBox="0 0 473.47 55.23"><defs><style>.cls-1{fill:#0066cc;}</style></defs><path id="CYBER_Arts" data-name="CYBER Arts" class="cls-1" d="M0,17.14Q0,0,17.14,0H40V7.62H17.14q-9.53,0-9.52,9.52v21q0,9.52,9.52,9.52H40v7.62H17.14Q0,55.23,0,38.09Zm9.52,0q0-7.62,7.62-7.61H40v7.61H19a1.69,1.69,0,0,0-1.9,1.44,1.77,1.77,0,0,0,0,.46V36.18a1.68,1.68,0,0,0,1.43,1.9,1.85,1.85,0,0,0,.47,0H40V45.7H17.14q-7.62,0-7.62-7.62Zm66.65,0V0h7.62V17.14q0,14.61-11.43,18.41V55.23H64.75V28.57h1.9q9.52,0,9.52-11.43Zm-32.37,0V0h7.62V17.14q0,11.43,9.52,11.43h1.9V55.23H55.22V35.55Q43.81,31.74,43.8,17.14Zm30.47,0q0,9.52-7.62,9.52H60.94q-7.62,0-7.62-9.52V0h7.62V17.14A1.68,1.68,0,0,0,62.37,19a1.85,1.85,0,0,0,.47,0h1.9a1.68,1.68,0,0,0,1.9-1.43,1.85,1.85,0,0,0,0-.47V0h7.62ZM87.6.39h20.56q9.47,0,15.49,11.68a24.17,24.17,0,0,1,1,6.6,18.08,18.08,0,0,1-2.54,9.14,19.17,19.17,0,0,1,2.54,9.64q0,11.63-12.7,17.27l-3.81.51H87.6V47.61h19q7.62,0,10.16-8.63V36.44q0-5.2-5.34-8.38,5.34-3.93,5.34-8.63V17.65q0-5.89-6.86-9.14a8.43,8.43,0,0,0-3.3-.51h-19Zm0,9.39h19q6.4,0,8.38,7.36v2.29q0,4.38-5.59,7.11a6.35,6.35,0,0,1-2.79.51h-19Zm0,19h20.31q4.5,0,7.11,6.86v2q0,5.72-6.6,8.12H87.6v-17Zm7.87,7.62v1.78h9.9c1.26,0,1.94-.26,2-.76V37.2c-.09-.51-.76-.76-2-.76Zm0-19v1.77h9.9c1.26,0,1.94-.25,2-.76v-.25c-.09-.51-.76-.76-2-.76Zm33-.26Q128.48,0,145.61,0h22.86V7.62H145.61q-9.51,0-9.52,9.52v21q0,9.52,9.52,9.52h22.86v7.62H145.61q-17.13,0-17.13-17.14ZM138,26.66V17.14q0-7.62,7.61-7.61h22.86v7.61H147.52a1.69,1.69,0,0,0-1.9,1.44,1.77,1.77,0,0,0,0,.46h17.14v7.62Zm0,1.9h24.75v7.62H145.61a1.7,1.7,0,0,0,1.44,1.9,1.77,1.77,0,0,0,.46,0h21V45.7H145.61q-7.61,0-7.61-7.62Zm78.07-10.47q0,7.48-3.84,11.33a27.52,27.52,0,0,1-6.5,5.17l10.34,20.64h-7.61L195.13,28.57h3.81a9.11,9.11,0,0,0,6.44-3.08,10.07,10.07,0,0,0,3.08-7.4,10.11,10.11,0,0,0-3.08-7.36,9.05,9.05,0,0,0-6.45-3.11H172.27V0h26.67q6.54,0,11.84,5.33a17.47,17.47,0,0,1,5.29,12.77Zm-9.52,0A8.24,8.24,0,0,1,204,24.15a7.29,7.29,0,0,1-5.11,2.51h-19V55.23h-7.61V19.05H197c1.27,0,1.9-.32,1.9-.95s-.63-1-1.9-1H172.28V9.53h26.66a7.25,7.25,0,0,1,5.11,2.54,8.28,8.28,0,0,1,2.5,6Zm0,37.13h-7.61l-9.52-19v19H181.8V28.57h11.43Zm93.31-7.61H322.4L307.16,8.89a2.55,2.55,0,0,0-2.54-1.27,3,3,0,0,0-2.54,1.27L285,55.23h-7.62L295.1,6.35Q298.28,0,304.62,0q7.31,0,9.52,6.35l18.41,48.88H299.86Zm0-1.9V41.59l-5.39,13.64h-7.62l16.5-44.43c.21-.85.63-1.27,1.27-1.27s1.06.42,1.27,1.27l13.33,34.91Zm4.76-16.5-3.49,8.89h7ZM380.16,18.1c0,5-1.28,8.77-3.84,11.34a27.78,27.78,0,0,1-6.5,5.17l10.34,20.62h-7.62L359.21,28.57H363a9.11,9.11,0,0,0,6.44-3.08,10.07,10.07,0,0,0,3.08-7.4,10.11,10.11,0,0,0-3.08-7.36A9.05,9.05,0,0,0,363,7.62H336.36V0H363q6.54,0,11.84,5.33a17.47,17.47,0,0,1,5.3,12.77Zm-9.52,0a8.26,8.26,0,0,1-2.51,6.07,7.28,7.28,0,0,1-5.11,2.5H344V55.23h-7.62V19.05h24.76c1.26,0,1.9-.32,1.9-.95s-.64-1-1.9-1H336.36V9.53H363a7.23,7.23,0,0,1,5.11,2.54,8.29,8.29,0,0,1,2.51,6Zm0,37.13H363l-9.52-19v19h-7.61V28.57h11.42ZM384,0V7.62h43.8V0Zm0,9.53v7.61H397.3V55.23h7.62V9.53Zm22.85,45.7h7.62V17.14h13.33V9.53H406.82ZM431.58,18.1a17.4,17.4,0,0,1,5.3-12.76Q442.18,0,448.71,0h24.76V7.62H450.62a11.25,11.25,0,0,0-8.35,3.11,10.15,10.15,0,0,0-3.08,7.36,10.09,10.09,0,0,0,3.08,7.4,11.28,11.28,0,0,0,8.35,3.08h3.81a9.5,9.5,0,0,1,7,2.51,8.53,8.53,0,0,1,0,12.09,9.37,9.37,0,0,1-7,2.54H431.58V38.09h22.85c1.27,0,1.9-.31,1.9-1s-.63-1-1.9-1h-5.71q-6.54,0-11.84-5.3A17.4,17.4,0,0,1,431.58,18.1Zm9.52,0a8.28,8.28,0,0,1,2.5-6,9.39,9.39,0,0,1,7-2.54h22.85v7.62H450.62c-1.27,0-1.9.31-1.9,1s.63.95,1.9.95h5.71q6.54,0,11.84,5.3a17.4,17.4,0,0,1,5.3,12.79,17.45,17.45,0,0,1-5.3,12.76q-5.3,5.33-11.84,5.33H431.58V47.61h22.85a11.21,11.21,0,0,0,8.35-3.11,10.41,10.41,0,0,0,0-14.76,11.28,11.28,0,0,0-8.35-3.08h-3.81a9.44,9.44,0,0,1-7-2.51A8.21,8.21,0,0,1,441.1,18.1Z"/></svg>