<?xml version="1.0" encoding="UTF-8"?><svg id="a" xmlns="http://www.w3.org/2000/svg" width="726.91" height="80" viewBox="0 0 726.91 80">
<title>Imperial College London logo - Brandlogos.net</title><path d="M301.45,0v80h51.89v-14h-36.72v-20h33.53v-13.6h-33.53V14h36.72V0h-51.89Z" style="fill:#0000cd;"/><path d="M238.4,12.92h-11.18v26.96h11.18c8.74,0,15.17-4.24,15.17-13.48s-6.42-13.48-15.17-13.48ZM239.2,52.8h-11.98v27.2h-15.17V0h27.14c17.02,0,30.34,7.73,30.34,26.4s-13.41,26.4-30.34,26.4Z" style="fill:#0000cd;"/><path d="M485.08,0v14h18.76v52h-18.76v14h52.69v-14h-18.76V14h18.76V0h-52.69Z" style="fill:#0000cd;"/><path d="M434.19,24.8c0,9.64-5.59,12.68-15.17,12.68h-12.77V12.92h12.77c10.4,0,15.17,3.88,15.17,11.88ZM450.16,24.8c0-18.67-12.77-24.8-29.54-24.8h-29.54v80h15.17v-29.6h12.77c.7,0,1.39-.01,2.08-.04l15.46,29.64h16.81l-17.15-32.81c8.34-3.71,13.93-10.85,13.93-22.39Z" style="fill:#0000cd;"/><path d="M604.32,14.19l10.91,35.28h-21.83l10.92-35.28ZM594.34,0l-26.35,80h15.97l5.44-17.6h29.83l5.44,17.6h15.97L614.3,0h-19.95Z" style="fill:#0000cd;"/><path d="M674.89,0v80h52.03v-14h-36.86V0h-15.17Z" style="fill:#0000cd;"/><path d="M151.91,0l-19.16,47.04L113.59,0h-21.56v80h14.37V20.19l18.36,42.21h15.97l18.36-42.21v59.81h14.37V0h-21.55Z" style="fill:#0000cd;"/><path d="M0,0v14h18.76v52H0v14h52.69v-14h-18.76V14h18.76V0H0Z" style="fill:#0000cd;"/></svg>